<svg xmlns="http://www.w3.org/2000/svg" version="1.1" xmlns:xlink="http://www.w3.org/1999/xlink" xmlns:svgjs="http://svgjs.com/svgjs" width="512" height="512" x="0" y="0" viewBox="0 0 512.002 512.002" style="enable-background:new 0 0 512 512" xml:space="preserve" class="hovered-paths"><g><path d="M10 378.329h492.002" style="fill-rule:evenodd;clip-rule:evenodd;stroke-width:20;stroke-linecap:round;stroke-linejoin:round;stroke-miterlimit:2.6131;" fill-rule="evenodd" clip-rule="evenodd" fill="none" stroke="#000000" stroke-width="20" stroke-linecap="round" stroke-linejoin="round" stroke-miterlimit="2.6131" data-original="#020288" class="" opacity="1"></path><path d="M172.668 51.667h166.666v166.667H172.668zM196.001 317.501h-40v130c0 11 9.002 20 20 20 10.997 0 20-9.003 20-20v-130zM316.001 317.501v130c0 11 9.002 20 20 20s20-9.002 20-20v-130h-40z" style="fill-rule:evenodd;clip-rule:evenodd;" fill="#1dff00" data-original="#a4fbc4" class="hovered-path" opacity="1"></path><path d="M131.001 10h250v282.502l-25 24.999h-200l-25-24.999zM188.377 267.984h41.667M282.043 267.984h41.666" style="fill-rule:evenodd;clip-rule:evenodd;stroke-width:20;stroke-linecap:round;stroke-linejoin:round;stroke-miterlimit:2.6131;" fill-rule="evenodd" clip-rule="evenodd" fill="none" stroke="#000000" stroke-width="20" stroke-linecap="round" stroke-linejoin="round" stroke-miterlimit="2.6131" data-original="#020288" class="" opacity="1"></path><path d="M172.668 135.001h28.835l17.499-38.334 37.001 81.667 21.999-43.333h61.332" style="fill-rule:evenodd;clip-rule:evenodd;stroke-width:20;stroke-linecap:round;stroke-linejoin:round;stroke-miterlimit:22.9256;" fill-rule="evenodd" clip-rule="evenodd" fill="none" stroke="#000000" stroke-width="20" stroke-linecap="round" stroke-linejoin="round" stroke-miterlimit="22.9256" data-original="#020288" class="" opacity="1"></path><path d="M37.003 428.329h30m25 40h-30M408.503 428.329h30m25 40h-30M234.979 462.002h30m25 40h-30" style="fill-rule:evenodd;clip-rule:evenodd;stroke-width:20;stroke-linecap:round;stroke-linejoin:round;stroke-miterlimit:2.6131;" fill-rule="evenodd" clip-rule="evenodd" fill="none" stroke="#000000" stroke-width="20" stroke-linecap="round" stroke-linejoin="round" stroke-miterlimit="2.6131" data-original="#020288" class="" opacity="1"></path></g></svg>