<svg xmlns="http://www.w3.org/2000/svg" version="1.1" xmlns:xlink="http://www.w3.org/1999/xlink" xmlns:svgjs="http://svgjs.com/svgjs" width="512" height="512" x="0" y="0" viewBox="0 0 512 512" style="enable-background:new 0 0 512 512" xml:space="preserve" class=""><g><path d="M407 512H105C47.103 512 0 464.897 0 407V105C0 47.103 47.103 0 105 0h302c57.897 0 105 47.103 105 105v302c0 57.897-47.103 105-105 105z" style="" fill="#ea596e" data-original="#ea596e" class=""></path><path d="M407 0H256v512h151c57.897 0 105-47.103 105-105V105C512 47.103 464.897 0 407 0z" style="" fill="#dd2e44" data-original="#dd2e44"></path><path d="M271.745 101.284C294.61 71.147 326.399 71 326.399 71s4.728 28.333-17.987 55.628c-24.254 29.145-51.823 24.375-51.823 24.375s-5.176-22.921 15.156-49.719z" style="" fill="#f2f2f2" data-original="#f2f2f2" class=""></path><path d="M320.809 418.489c-20.333 0-36.139-13.702-57.562-13.702-21.831 0-43.496 14.213-57.605 14.213-40.423 0-91.491-87.504-91.491-157.842 0-69.204 43.226-105.507 83.771-105.507 26.357 0 46.811 15.2 60.513 15.2 11.764 0 33.594-16.169 62.011-16.169 48.915 0 68.157 34.806 68.157 34.806s-37.635 19.242-37.635 65.932c0 52.671 46.883 70.823 46.883 70.823s-32.775 92.246-77.042 92.246z" style="" fill="#ffffff" data-original="#ffffff"></path><path d="M350.967 255.42c0-46.69 37.635-65.932 37.635-65.932s-19.242-34.806-68.157-34.806c-28.417 0-50.247 16.169-62.011 16.169-.788 0-1.602-.056-2.434-.151v234.58c2.407-.311 4.826-.494 7.247-.494 21.423 0 37.229 13.702 57.562 13.702 44.267 0 77.04-92.246 77.04-92.246s-46.882-18.151-46.882-70.822z" style="" fill="#f2f2f2" data-original="#f2f2f2" class=""></path></g></svg>