<svg xmlns="http://www.w3.org/2000/svg" version="1.1" xmlns:xlink="http://www.w3.org/1999/xlink" xmlns:svgjs="http://svgjs.com/svgjs" width="512" height="512" x="0" y="0" viewBox="0 0 512 512" style="enable-background:new 0 0 512 512" xml:space="preserve" class=""><g><linearGradient id="a" x1="256" x2="256" y2="512" gradientUnits="userSpaceOnUse"><stop stop-opacity="1" stop-color="#1fbbee" offset="0"></stop><stop stop-opacity="1" stop-color="#f031ca" offset="0.39768339768339767"></stop></linearGradient><path fill="url(#a)" d="M256 0C114.841 0 0 114.841 0 256s114.841 256 256 256 256-114.841 256-256S397.159 0 256 0zm0 480C132.486 480 32 379.514 32 256S132.486 32 256 32s224 100.486 224 224-100.486 224-224 224zm-63.575-205a16 16 0 0 1 22.627-22.627L240 277.322V140.515a16 16 0 0 1 32 0v136.807l24.948-24.948A16 16 0 0 1 319.575 275l-52.262 52.261a16 16 0 0 1-22.626 0zm199.217 96.484a16 16 0 0 1-16 16H136.358a16 16 0 0 1 0-32h239.284a16 16 0 0 1 16 16.001z" data-original="url(#a)" class=""></path></g></svg>