<svg xmlns="http://www.w3.org/2000/svg" version="1.1" xmlns:xlink="http://www.w3.org/1999/xlink" xmlns:svgjs="http://svgjs.com/svgjs" width="512" height="512" x="0" y="0" viewBox="0 0 512 512" style="enable-background:new 0 0 512 512" xml:space="preserve" class=""><g><linearGradient id="a" x1="256" x2="256" y1="512" y2="0" gradientUnits="userSpaceOnUse"><stop offset="0" stop-color="white"></stop><stop offset="1" stop-color="white"></stop></linearGradient><linearGradient id="b" x1="271" x2="271" y1="391.007" y2="121" gradientUnits="userSpaceOnUse"><stop offset="0" stop-color="#ffc2cc"></stop><stop offset="1" stop-color="#fff2f4"></stop></linearGradient><path fill="url(#a)" d="M256 512C114.426 512 0 397.611 0 256 0 114.425 114.39 0 256 0c141.575 0 256 114.389 256 256 0 141.574-114.389 256-256 256z" data-original="url(#a)" class=""></path><path fill="url(#b)" d="M166 376V136a15 15 0 0 1 23.32-12.481l180 120a15 15 0 0 1 0 24.962l-180 120C179.465 395.052 166 388.073 166 376z" data-original="url(#b)" class=""></path></g></svg>