<svg xmlns="http://www.w3.org/2000/svg" version="1.1" xmlns:xlink="http://www.w3.org/1999/xlink" xmlns:svgjs="http://svgjs.com/svgjs" width="512" height="512" x="0" y="0" viewBox="0 0 64 64" style="enable-background:new 0 0 512 512" xml:space="preserve" class=""><g><g fill-rule="evenodd"><path fill="#ff5a51" d="M30 18h18A9 9 0 0 0 48.92.046C48.614.029 48.311 0 48 0H16A16 16 0 0 0 0 16v32a30 30 0 0 1 30-30" data-original="#ff5a51" class=""></path><path fill="#d5002c" d="M48 32a16 16 0 1 0 16 16V16a16 16 0 0 1-16 16" data-original="#d5002c"></path><path fill="#ffffff" d="M25.048 17.876A2 2 0 0 0 22 19.579v24.842a2 2 0 0 0 3.048 1.703l20.184-12.421a2 2 0 0 0 0-3.406L25.048 17.876z" data-original="#ffffff" class=""></path></g></g></svg>